<mxfile host="app.diagrams.net" modified="2023-04-18T18:35:03.888Z" agent="Mozilla/5.0 (Windows NT 10.0; Win64; x64) AppleWebKit/537.36 (KHTML, like Gecko) Chrome/112.0.0.0 Safari/537.36" etag="rU9htnmuwha--Wo7bf85" version="21.1.8" type="github">
  <diagram name="Страница 1" id="9wcpC3PyzUsAPd4qOMOV">
    <mxGraphModel dx="1050" dy="549" grid="1" gridSize="10" guides="1" tooltips="1" connect="1" arrows="1" fold="1" page="1" pageScale="1" pageWidth="1654" pageHeight="1169" math="0" shadow="0">
      <root>
        <mxCell id="0" />
        <mxCell id="1" parent="0" />
        <mxCell id="bcbi_4sSIgUIlSKfILoc-11" value="" style="edgeStyle=orthogonalEdgeStyle;rounded=0;orthogonalLoop=1;jettySize=auto;html=1;" edge="1" parent="1" source="bcbi_4sSIgUIlSKfILoc-5" target="bcbi_4sSIgUIlSKfILoc-10">
          <mxGeometry relative="1" as="geometry" />
        </mxCell>
        <mxCell id="bcbi_4sSIgUIlSKfILoc-5" value="Ввод массива&lt;br&gt;строк&amp;nbsp;" style="shape=parallelogram;perimeter=parallelogramPerimeter;whiteSpace=wrap;html=1;fixedSize=1;" vertex="1" parent="1">
          <mxGeometry x="480" y="410" width="120" height="60" as="geometry" />
        </mxCell>
        <mxCell id="bcbi_4sSIgUIlSKfILoc-9" value="" style="edgeStyle=orthogonalEdgeStyle;rounded=0;orthogonalLoop=1;jettySize=auto;html=1;" edge="1" parent="1" source="bcbi_4sSIgUIlSKfILoc-7" target="bcbi_4sSIgUIlSKfILoc-5">
          <mxGeometry relative="1" as="geometry" />
        </mxCell>
        <mxCell id="bcbi_4sSIgUIlSKfILoc-7" value="Начало" style="strokeWidth=2;html=1;shape=mxgraph.flowchart.start_1;whiteSpace=wrap;" vertex="1" parent="1">
          <mxGeometry x="490" y="350" width="100" height="40" as="geometry" />
        </mxCell>
        <mxCell id="bcbi_4sSIgUIlSKfILoc-8" value="Конец" style="strokeWidth=2;html=1;shape=mxgraph.flowchart.start_1;whiteSpace=wrap;" vertex="1" parent="1">
          <mxGeometry x="490" y="860" width="100" height="40" as="geometry" />
        </mxCell>
        <mxCell id="bcbi_4sSIgUIlSKfILoc-13" style="edgeStyle=orthogonalEdgeStyle;rounded=0;orthogonalLoop=1;jettySize=auto;html=1;entryX=0.5;entryY=0;entryDx=0;entryDy=0;" edge="1" parent="1" source="bcbi_4sSIgUIlSKfILoc-10" target="bcbi_4sSIgUIlSKfILoc-17">
          <mxGeometry relative="1" as="geometry">
            <mxPoint x="540" y="570" as="targetPoint" />
          </mxGeometry>
        </mxCell>
        <mxCell id="bcbi_4sSIgUIlSKfILoc-10" value="Создание нового пустого массива" style="rounded=0;whiteSpace=wrap;html=1;" vertex="1" parent="1">
          <mxGeometry x="480" y="490" width="120" height="60" as="geometry" />
        </mxCell>
        <mxCell id="bcbi_4sSIgUIlSKfILoc-21" style="edgeStyle=orthogonalEdgeStyle;rounded=0;orthogonalLoop=1;jettySize=auto;html=1;exitX=1;exitY=0.5;exitDx=0;exitDy=0;entryX=0.5;entryY=0;entryDx=0;entryDy=0;" edge="1" parent="1" source="bcbi_4sSIgUIlSKfILoc-17" target="bcbi_4sSIgUIlSKfILoc-34">
          <mxGeometry relative="1" as="geometry">
            <mxPoint x="670" y="820" as="targetPoint" />
            <Array as="points">
              <mxPoint x="700" y="608" />
            </Array>
          </mxGeometry>
        </mxCell>
        <mxCell id="bcbi_4sSIgUIlSKfILoc-24" style="edgeStyle=orthogonalEdgeStyle;rounded=0;orthogonalLoop=1;jettySize=auto;html=1;exitX=0.5;exitY=1;exitDx=0;exitDy=0;entryX=0.5;entryY=0;entryDx=0;entryDy=0;" edge="1" parent="1" source="bcbi_4sSIgUIlSKfILoc-17" target="bcbi_4sSIgUIlSKfILoc-26">
          <mxGeometry relative="1" as="geometry">
            <mxPoint x="540" y="660" as="targetPoint" />
          </mxGeometry>
        </mxCell>
        <mxCell id="bcbi_4sSIgUIlSKfILoc-17" value="" style="verticalLabelPosition=bottom;verticalAlign=top;html=1;shape=hexagon;perimeter=hexagonPerimeter2;arcSize=6;size=0.27;" vertex="1" parent="1">
          <mxGeometry x="480" y="575" width="120" height="65" as="geometry" />
        </mxCell>
        <mxCell id="bcbi_4sSIgUIlSKfILoc-19" value="Итерация по &lt;br&gt;исходному &lt;br&gt;массиву строк" style="text;html=1;align=center;verticalAlign=middle;resizable=0;points=[];autosize=1;strokeColor=none;fillColor=none;" vertex="1" parent="1">
          <mxGeometry x="490" y="575" width="100" height="60" as="geometry" />
        </mxCell>
        <mxCell id="bcbi_4sSIgUIlSKfILoc-28" value="" style="edgeStyle=orthogonalEdgeStyle;rounded=0;orthogonalLoop=1;jettySize=auto;html=1;entryX=0.5;entryY=0;entryDx=0;entryDy=0;" edge="1" parent="1" source="bcbi_4sSIgUIlSKfILoc-26" target="bcbi_4sSIgUIlSKfILoc-29">
          <mxGeometry relative="1" as="geometry">
            <mxPoint x="540" y="760" as="targetPoint" />
          </mxGeometry>
        </mxCell>
        <mxCell id="bcbi_4sSIgUIlSKfILoc-31" style="edgeStyle=orthogonalEdgeStyle;rounded=0;orthogonalLoop=1;jettySize=auto;html=1;exitX=0;exitY=0.5;exitDx=0;exitDy=0;" edge="1" parent="1" source="bcbi_4sSIgUIlSKfILoc-26">
          <mxGeometry relative="1" as="geometry">
            <mxPoint x="400" y="700.3333333333335" as="targetPoint" />
          </mxGeometry>
        </mxCell>
        <mxCell id="bcbi_4sSIgUIlSKfILoc-26" value="Длина текущей строки &amp;lt;= 3 ?" style="rhombus;whiteSpace=wrap;html=1;" vertex="1" parent="1">
          <mxGeometry x="480" y="660" width="120" height="80" as="geometry" />
        </mxCell>
        <mxCell id="bcbi_4sSIgUIlSKfILoc-30" style="edgeStyle=orthogonalEdgeStyle;rounded=0;orthogonalLoop=1;jettySize=auto;html=1;entryX=0;entryY=0.5;entryDx=0;entryDy=0;" edge="1" parent="1" source="bcbi_4sSIgUIlSKfILoc-29" target="bcbi_4sSIgUIlSKfILoc-17">
          <mxGeometry relative="1" as="geometry">
            <Array as="points">
              <mxPoint x="400" y="795" />
              <mxPoint x="400" y="608" />
              <mxPoint x="480" y="608" />
            </Array>
          </mxGeometry>
        </mxCell>
        <mxCell id="bcbi_4sSIgUIlSKfILoc-29" value="Добавляем строку в новый массив" style="rounded=0;whiteSpace=wrap;html=1;" vertex="1" parent="1">
          <mxGeometry x="480" y="765" width="120" height="60" as="geometry" />
        </mxCell>
        <mxCell id="bcbi_4sSIgUIlSKfILoc-32" value="Да" style="text;html=1;align=center;verticalAlign=middle;resizable=0;points=[];autosize=1;strokeColor=none;fillColor=none;" vertex="1" parent="1">
          <mxGeometry x="540" y="735" width="40" height="30" as="geometry" />
        </mxCell>
        <mxCell id="bcbi_4sSIgUIlSKfILoc-33" value="Нет" style="text;html=1;align=center;verticalAlign=middle;resizable=0;points=[];autosize=1;strokeColor=none;fillColor=none;" vertex="1" parent="1">
          <mxGeometry x="430" y="670" width="40" height="30" as="geometry" />
        </mxCell>
        <mxCell id="bcbi_4sSIgUIlSKfILoc-35" style="edgeStyle=orthogonalEdgeStyle;rounded=0;orthogonalLoop=1;jettySize=auto;html=1;entryX=0.5;entryY=0;entryDx=0;entryDy=0;entryPerimeter=0;" edge="1" parent="1" source="bcbi_4sSIgUIlSKfILoc-34" target="bcbi_4sSIgUIlSKfILoc-8">
          <mxGeometry relative="1" as="geometry">
            <Array as="points">
              <mxPoint x="700" y="840" />
              <mxPoint x="540" y="840" />
            </Array>
          </mxGeometry>
        </mxCell>
        <mxCell id="bcbi_4sSIgUIlSKfILoc-34" value="Вывод нового массива строк" style="shape=parallelogram;perimeter=parallelogramPerimeter;whiteSpace=wrap;html=1;fixedSize=1;" vertex="1" parent="1">
          <mxGeometry x="640" y="765" width="120" height="60" as="geometry" />
        </mxCell>
      </root>
    </mxGraphModel>
  </diagram>
</mxfile>
